# xmcd
# 
# Track frame offsets:
#     150
#     29817
#     50623
#     73156
#     93851
#     111333
#     131506
#     148272
#     166888
#     183232
#     205102
#     228804
#     253419
#     273011
#     303505
# 
# Disc length: 4367
# 
# Revision: 2
# Processed by: cddbd v1.5.2PL0 Copyright (c) Steve Scherf et al.
# Submitted via: fre:ac v1.0.31
# 
DISCID=dc110d0f
DTITLE=Con Funk Shun - To The Max
DYEAR=1980
DGENRE=R&B
TTITLE0=If You're In Need Of Love
TTITLE1=Straight From The Heart
TTITLE2=A Song For You
TTITLE3=California 1
TTITLE4=Ms Got The Body
TTITLE5=Lets Ride And Slide
TTITLE6=Everlove
TTITLE7=Hide And Freak
TTITLE8=You Are The One
TTITLE9=Take It To The Max
TTITLE10=Love's Train
TTITLE11=Ain't Nobody Baby
TTITLE12=T.H.E. Freak
TTITLE13=Ms Got The Body (12" Version)
TTITLE14=Ms Got The Body (Instrumental)
EXTD=
EXTT0=
EXTT1=
EXTT2=
EXTT3=
EXTT4=
EXTT5=
EXTT6=
EXTT7=
EXTT8=
EXTT9=
EXTT10=
EXTT11=
EXTT12=
EXTT13=
EXTT14=
PLAYORDER=
